<svg width="40" height="41" viewBox="0 0 40 41" fill="none" xmlns="http://www.w3.org/2000/svg">
<g filter="url(#filter0_d_2023_2)">
<ellipse cx="20" cy="16.5" rx="16" ry="16.5" fill="#477519"/>
</g>
<path d="M33.2297 9.16463C32.0148 10.5253 30.6415 11.6452 28.8305 12.1064C28.0558 12.304 27.2736 12.2179 26.4913 12.1799C26.0134 12.1571 25.5355 12.1165 25.0903 12.0861C25.2287 12.5904 25.4198 13.0743 25.4928 13.576C25.7015 15.0456 25.2538 16.3658 24.4288 17.5516C23.9409 18.2535 23.3724 18.9047 22.809 19.5483C21.9412 20.5364 21.242 21.6007 21.1339 22.9968C20.1202 22.7915 19.1166 22.6953 18.0376 23.0221C18.1508 22.4622 18.2237 21.9554 18.3545 21.4638C18.7695 19.8954 19.5945 18.5297 20.4673 17.1918C20.9502 16.4519 21.4457 15.7171 21.5388 14.8125C21.5841 14.3666 21.5891 13.8902 21.481 13.462C21.2445 12.527 20.578 12.0355 19.6398 11.9164C18.7469 11.8049 18.0703 12.1545 17.615 12.9299C17.029 13.9308 17.1371 14.9671 17.5018 16.006C17.5748 16.2137 17.6729 16.4139 17.7609 16.6191C15.9047 17.0246 14.3804 16.0414 13.9755 14.1892C13.9629 14.1335 13.9352 14.0828 13.9126 14.0296C13.9126 13.7255 13.9126 13.4215 13.9126 13.1174C13.9302 13.0819 13.9554 13.049 13.9629 13.011C14.2899 11.402 15.2029 10.2744 16.7121 9.65619C17.8741 9.17983 19.0864 9.07087 20.3189 9.26091C20.6157 9.30652 20.7541 9.2229 20.9276 8.98979C21.7778 7.8369 22.6254 6.67894 23.5259 5.56912C24.5772 4.27434 25.8147 3.18986 27.3415 2.47279C28.0684 2.13072 28.7726 1.74305 29.487 1.37817C29.5071 1.37817 29.5272 1.37817 29.5473 1.37817C29.8919 1.50487 29.9045 1.78359 29.8366 2.07244C29.6656 2.80979 29.5272 3.5598 29.2883 4.27434C28.8104 5.70342 28.0105 6.89938 26.6774 7.67727C26.114 8.00667 25.5632 8.36394 25.0098 8.70854C24.9218 8.76428 24.8363 8.82256 24.7483 8.88084C24.8338 8.90364 24.8992 8.88844 24.9646 8.8707C26.1794 8.54637 27.4044 8.17137 28.6595 8.22204C30.0781 8.27779 31.4916 8.5109 32.9027 8.6832C33.0184 8.6984 33.1215 8.83523 33.2297 8.91631V9.15956V9.16463Z" fill="white"/>
<path d="M18.5006 27.8562C19.0591 27.8562 19.5118 27.4035 19.5118 26.8451C19.5118 26.2867 19.0591 25.834 18.5006 25.834C17.9422 25.834 17.4895 26.2867 17.4895 26.8451C17.4895 27.4035 17.9422 27.8562 18.5006 27.8562Z" fill="white"/>
<path d="M18.0983 27.1399C18.6567 27.1399 19.1094 26.6872 19.1094 26.1288C19.1094 25.5704 18.6567 25.1177 18.0983 25.1177C17.5399 25.1177 17.0872 25.5704 17.0872 26.1288C17.0872 26.6872 17.5399 27.1399 18.0983 27.1399Z" fill="white"/>
<path d="M18.131 26.3167C18.6894 26.3167 19.1421 25.864 19.1421 25.3056C19.1421 24.7471 18.6894 24.2944 18.131 24.2944C17.5726 24.2944 17.1199 24.7471 17.1199 25.3056C17.1199 25.864 17.5726 26.3167 18.131 26.3167Z" fill="white"/>
<path d="M18.5888 25.6326C19.1472 25.6326 19.5999 25.1799 19.5999 24.6215C19.5999 24.063 19.1472 23.6104 18.5888 23.6104C18.0303 23.6104 17.5776 24.063 17.5776 24.6215C17.5776 25.1799 18.0303 25.6326 18.5888 25.6326Z" fill="white"/>
<path d="M19.3356 25.2884C19.894 25.2884 20.3467 24.8357 20.3467 24.2772C20.3467 23.7188 19.894 23.2661 19.3356 23.2661C18.7772 23.2661 18.3245 23.7188 18.3245 24.2772C18.3245 24.8357 18.7772 25.2884 19.3356 25.2884Z" fill="white"/>
<path d="M20.153 25.3836C20.7114 25.3836 21.1641 24.9309 21.1641 24.3725C21.1641 23.814 20.7114 23.3613 20.153 23.3613C19.5945 23.3613 19.1418 23.814 19.1418 24.3725C19.1418 24.9309 19.5945 25.3836 20.153 25.3836Z" fill="white"/>
<path d="M20.7997 25.8943C21.3581 25.8943 21.8108 25.4416 21.8108 24.8832C21.8108 24.3248 21.3581 23.8721 20.7997 23.8721C20.2413 23.8721 19.7886 24.3248 19.7886 24.8832C19.7886 25.4416 20.2413 25.8943 20.7997 25.8943Z" fill="white"/>
<path d="M21.0839 26.6663C21.6423 26.6663 22.095 26.2136 22.095 25.6552C22.095 25.0967 21.6423 24.644 21.0839 24.644C20.5255 24.644 20.0728 25.0967 20.0728 25.6552C20.0728 26.2136 20.5255 26.6663 21.0839 26.6663Z" fill="white"/>
<path d="M20.9227 27.4739C21.4812 27.4739 21.9339 27.0212 21.9339 26.4628C21.9339 25.9044 21.4812 25.4517 20.9227 25.4517C20.3643 25.4517 19.9116 25.9044 19.9116 26.4628C19.9116 27.0212 20.3643 27.4739 20.9227 27.4739Z" fill="white"/>
<path d="M20.3644 28.0769C20.9228 28.0769 21.3755 27.6242 21.3755 27.0658C21.3755 26.5074 20.9228 26.0547 20.3644 26.0547C19.806 26.0547 19.3533 26.5074 19.3533 27.0658C19.3533 27.6242 19.806 28.0769 20.3644 28.0769Z" fill="white"/>
<path d="M19.5722 28.3011C20.1306 28.3011 20.5833 27.8484 20.5833 27.2899C20.5833 26.7315 20.1306 26.2788 19.5722 26.2788C19.0137 26.2788 18.561 26.7315 18.561 27.2899C18.561 27.8484 19.0137 28.3011 19.5722 28.3011Z" fill="white"/>
<path d="M19.6196 26.6635C20.0877 26.6635 20.4672 26.284 20.4672 25.8159C20.4672 25.3478 20.0877 24.9683 19.6196 24.9683C19.1515 24.9683 18.772 25.3478 18.772 25.8159C18.772 26.284 19.1515 26.6635 19.6196 26.6635Z" fill="white"/>
<defs>
<filter id="filter0_d_2023_2" x="0" y="0" width="40" height="41" filterUnits="userSpaceOnUse" color-interpolation-filters="sRGB">
<feFlood flood-opacity="0" result="BackgroundImageFix"/>
<feColorMatrix in="SourceAlpha" type="matrix" values="0 0 0 0 0 0 0 0 0 0 0 0 0 0 0 0 0 0 127 0" result="hardAlpha"/>
<feOffset dy="4"/>
<feGaussianBlur stdDeviation="2"/>
<feComposite in2="hardAlpha" operator="out"/>
<feColorMatrix type="matrix" values="0 0 0 0 0 0 0 0 0 0 0 0 0 0 0 0 0 0 0.25 0"/>
<feBlend mode="normal" in2="BackgroundImageFix" result="effect1_dropShadow_2023_2"/>
<feBlend mode="normal" in="SourceGraphic" in2="effect1_dropShadow_2023_2" result="shape"/>
</filter>
</defs>
</svg>
