<svg width="40" height="41" viewBox="0 0 40 41" fill="none" xmlns="http://www.w3.org/2000/svg">
<g filter="url(#filter0_d_2113_2)">
<ellipse cx="20" cy="16.5" rx="16" ry="16.5" fill="#477519"/>
</g>
<path d="M20.873 16.4807C24.4136 16.5281 25.0071 17.5215 25.0889 17.7219C25.7453 19.248 26.5643 21.536 26.0703 23.7151C25.6812 25.437 24.3111 25.552 23.7256 25.6028C23.6613 25.6096 23.5864 25.6165 23.5391 25.6233C22.4935 26.6586 21.3396 27.1868 20.1113 27.1868H20.0908C18.2604 27.1798 16.8525 26.0054 16.4668 25.6467C16.118 25.6263 15.2555 25.5014 14.623 24.7542C13.8922 23.8913 13.7263 22.5205 14.1289 20.6799L14.6836 17.5227L14.8604 17.4514C14.9704 17.4088 17.439 16.4334 20.873 16.4807ZM20.8594 17.1575C19.7664 17.1439 18.7713 17.2384 17.9287 17.3704C18.4735 18.9641 18.514 20.7915 18.3516 21.634C18.2635 22.0839 17.9763 22.4626 17.5771 22.6487C16.3387 23.2307 16.7824 24.7742 16.8975 25.1194V25.1223C17.1651 25.373 18.4638 26.5031 20.0977 26.51H20.1084C21.1674 26.5099 22.1755 26.036 23.1025 25.0989C23.2344 24.967 23.4139 24.9502 23.6641 24.9299C24.2461 24.8792 25.1264 24.8041 25.4072 23.5657C25.8571 21.5796 25.0821 19.4314 24.4629 17.9866C24.4629 17.9866 23.9589 17.2015 20.8594 17.1575ZM17.2559 17.4924C16.2849 17.6853 15.5912 17.9085 15.2832 18.0168L14.792 20.8118C14.4401 22.4257 14.562 23.6308 15.1406 24.3176C15.4518 24.6862 15.841 24.8481 16.1387 24.9192C15.9357 23.9887 16.0074 22.6459 17.293 22.0403C17.496 21.9455 17.6445 21.7454 17.6885 21.5051C17.8475 20.6897 17.7701 18.9338 17.2559 17.4924Z" fill="white"/>
<path d="M20.873 16.4807C24.4136 16.5281 25.0071 17.5215 25.0889 17.7219C25.7453 19.248 26.5643 21.536 26.0703 23.7151C25.6812 25.437 24.3111 25.552 23.7256 25.6028C23.6613 25.6096 23.5864 25.6165 23.5391 25.6233C22.4935 26.6586 21.3396 27.1868 20.1113 27.1868H20.0908C18.2604 27.1798 16.8525 26.0054 16.4668 25.6467C16.118 25.6263 15.2555 25.5014 14.623 24.7542C13.8922 23.8913 13.7263 22.5205 14.1289 20.6799L14.6836 17.5227L14.8604 17.4514C14.9704 17.4088 17.439 16.4334 20.873 16.4807ZM20.8594 17.1575C19.7664 17.1439 18.7713 17.2384 17.9287 17.3704C18.4735 18.9641 18.514 20.7915 18.3516 21.634C18.2635 22.0839 17.9763 22.4626 17.5771 22.6487C16.3387 23.2307 16.7824 24.7742 16.8975 25.1194V25.1223C17.1651 25.373 18.4638 26.5031 20.0977 26.51H20.1084C21.1674 26.5099 22.1755 26.036 23.1025 25.0989C23.2344 24.967 23.4139 24.9502 23.6641 24.9299C24.2461 24.8792 25.1264 24.8041 25.4072 23.5657C25.8571 21.5796 25.0821 19.4314 24.4629 17.9866C24.4629 17.9866 23.9589 17.2015 20.8594 17.1575ZM17.2559 17.4924C16.2849 17.6853 15.5912 17.9085 15.2832 18.0168L14.792 20.8118C14.4401 22.4257 14.562 23.6308 15.1406 24.3176C15.4518 24.6862 15.841 24.8481 16.1387 24.9192C15.9357 23.9887 16.0074 22.6459 17.293 22.0403C17.496 21.9455 17.6445 21.7454 17.6885 21.5051C17.8475 20.6897 17.7701 18.9338 17.2559 17.4924Z" stroke="white"/>
<path d="M23.4043 17.3801C22.4772 18.1855 22.4161 20.7576 22.4736 21.7219C22.521 21.8876 22.633 22.0294 22.7852 22.1106C23.2623 22.3712 24.7373 23.3865 23.6445 25.4944L23.042 25.1829C23.7625 23.7923 23.1231 23.0683 22.46 22.7063C22.1318 22.5269 21.8946 22.2152 21.8066 21.8499L21.7998 21.7961C21.7897 21.6439 21.5804 18.0706 22.9609 16.8694L23.4043 17.3801Z" fill="white"/>
<path d="M23.4043 17.3801C22.4772 18.1855 22.4161 20.7576 22.4736 21.7219C22.521 21.8876 22.633 22.0294 22.7852 22.1106C23.2623 22.3712 24.7373 23.3865 23.6445 25.4944L23.042 25.1829C23.7625 23.7923 23.1231 23.0683 22.46 22.7063C22.1318 22.5269 21.8946 22.2152 21.8066 21.8499L21.7998 21.7961C21.7897 21.6439 21.5804 18.0706 22.9609 16.8694L23.4043 17.3801Z" stroke="white"/>
<path d="M27.6572 4.12598C27.8398 3.99072 28.0735 3.96347 28.2832 4.04785C28.4929 4.1324 28.6385 4.31881 28.6758 4.54199C28.6995 4.68411 28.7367 4.857 28.7773 5.05664C29.1022 6.59286 29.7788 9.78698 26.7334 11.3672L26.7305 11.3643L26.4189 10.7617C29.0073 9.41849 28.4256 6.67117 28.1143 5.19238C28.0737 5.00966 28.0403 4.84329 28.0166 4.70117C27.1741 5.32713 24.6329 7.33704 24.0879 9.12695L23.4414 8.93066C24.0405 6.9649 26.5913 4.91443 27.6572 4.12598Z" fill="white"/>
<path d="M27.6572 4.12598C27.8398 3.99072 28.0735 3.96347 28.2832 4.04785C28.4929 4.1324 28.6385 4.31881 28.6758 4.54199C28.6995 4.68411 28.7367 4.857 28.7773 5.05664C29.1022 6.59286 29.7788 9.78698 26.7334 11.3672L26.7305 11.3643L26.4189 10.7617C29.0073 9.41849 28.4256 6.67117 28.1143 5.19238C28.0737 5.00966 28.0403 4.84329 28.0166 4.70117C27.1741 5.32713 24.6329 7.33704 24.0879 9.12695L23.4414 8.93066C24.0405 6.9649 26.5913 4.91443 27.6572 4.12598Z" stroke="white"/>
<path d="M11.6729 4.45386C11.8825 4.36945 12.1162 4.39672 12.2988 4.53198C13.3681 5.32042 15.919 7.37089 16.5146 9.33667L15.8682 9.53296C15.3232 7.74643 12.7786 5.73704 11.9395 5.11108L11.9199 5.23901C11.6898 6.60937 11.0803 10.2473 13.4824 11.1814L13.2393 11.8142V11.8103C10.3225 10.6801 10.9996 6.64652 11.25 5.13062L11.2803 4.948C11.3176 4.72481 11.4632 4.54179 11.6729 4.45386Z" fill="white"/>
<path d="M11.6729 4.45386C11.8825 4.36945 12.1162 4.39672 12.2988 4.53198C13.3681 5.32042 15.919 7.37089 16.5146 9.33667L15.8682 9.53296C15.3232 7.74643 12.7786 5.73704 11.9395 5.11108L11.9199 5.23901C11.6898 6.60937 11.0803 10.2473 13.4824 11.1814L13.2393 11.8142V11.8103C10.3225 10.6801 10.9996 6.64652 11.25 5.13062L11.2803 4.948C11.3176 4.72481 11.4632 4.54179 11.6729 4.45386Z" stroke="white"/>
<path d="M22.6323 22.1953L22.5991 22.3916C22.4434 23.2986 22.0736 25.416 19.9116 25.416L19.9155 25.4131C17.8413 25.4131 17.4149 22.3029 17.3979 22.1709L18.0679 22.083C18.0713 22.1101 18.4299 24.7358 19.9116 24.7363C21.3937 24.7363 21.7257 23.4635 21.9321 22.2725C21.9456 22.1982 21.9557 22.1272 21.9692 22.0664L22.6323 22.1953Z" fill="white"/>
<path d="M22.6323 22.1953L22.5991 22.3916C22.4434 23.2986 22.0736 25.416 19.9116 25.416L19.9155 25.4131C17.8413 25.4131 17.4149 22.3029 17.3979 22.1709L18.0679 22.083C18.0713 22.1101 18.4299 24.7358 19.9116 24.7363C21.3937 24.7363 21.7257 23.4635 21.9321 22.2725C21.9456 22.1982 21.9557 22.1272 21.9692 22.0664L22.6323 22.1953Z" stroke="white"/>
<path d="M16.8965 8.4668C20.0535 7.28587 24.4395 7.49321 26.6152 10.7314C29.8379 15.5255 26.0008 20.4073 25.9521 20.4727H25.9482L25.4209 20.0498C25.572 19.8642 28.9957 15.4941 26.0498 11.1104C24.0805 8.18003 20.0433 8.01395 17.1299 9.10352C15.2826 9.79379 14.1189 10.7957 13.5674 12.166C12.8096 14.0541 13.236 16.6999 14.8398 20.0293L14.2305 20.3242C12.542 16.8154 12.1091 13.9829 12.9414 11.9121C13.5674 10.3556 14.8596 9.22814 16.8965 8.4668Z" fill="white"/>
<path d="M16.8965 8.4668C20.0535 7.28587 24.4395 7.49321 26.6152 10.7314C29.8379 15.5255 26.0008 20.4073 25.9521 20.4727H25.9482L25.4209 20.0498C25.572 19.8642 28.9957 15.4941 26.0498 11.1104C24.0805 8.18003 20.0433 8.01395 17.1299 9.10352C15.2826 9.79379 14.1189 10.7957 13.5674 12.166C12.8096 14.0541 13.236 16.6999 14.8398 20.0293L14.2305 20.3242C12.542 16.8154 12.1091 13.9829 12.9414 11.9121C13.5674 10.3556 14.8596 9.22814 16.8965 8.4668Z" stroke="white"/>
<path d="M19.709 12.2134C24.3547 12.1119 27.4413 14.5819 27.6445 16.9233L26.9707 16.981C26.7946 14.9339 23.8408 12.8125 19.7266 12.8901C16.4003 12.9612 14.8673 14.5112 14.248 15.4282C13.7103 16.2263 13.6218 16.8892 13.6758 17.0317C13.6654 17.0013 13.6082 16.9443 13.5205 16.9341L13.4424 17.6069V17.604C13.3273 17.5904 12.959 17.4987 12.9893 16.853C13.0535 15.442 14.8366 12.3184 19.709 12.2134Z" fill="white"/>
<path d="M19.709 12.2134C24.3547 12.1119 27.4413 14.5819 27.6445 16.9233L26.9707 16.981C26.7946 14.9339 23.8408 12.8125 19.7266 12.8901C16.4003 12.9612 14.8673 14.5112 14.248 15.4282C13.7103 16.2263 13.6218 16.8892 13.6758 17.0317C13.6654 17.0013 13.6082 16.9443 13.5205 16.9341L13.4424 17.6069V17.604C13.3273 17.5904 12.959 17.4987 12.9893 16.853C13.0535 15.442 14.8366 12.3184 19.709 12.2134Z" stroke="white"/>
<path d="M18.21 30.9512L18.208 30.9521H18.2119L18.21 30.9512ZM18.21 30.9512C18.25 30.9511 18.2931 30.9484 18.333 30.9385C18.4852 30.9013 18.6105 30.8002 18.6748 30.6582L19.6631 28.5166C19.7814 28.263 19.67 27.9584 19.4199 27.8398L19.2334 27.751C18.1707 27.2501 14.9663 25.7345 14.4824 25.5078C14.3676 25.4538 14.2359 25.4473 14.1143 25.4844L12.7402 25.9209C12.5576 25.9818 12.4221 26.1339 12.3916 26.3232C12.3611 26.5127 12.4356 26.7023 12.5879 26.8174L17.9033 30.8477C17.9909 30.915 18.0988 30.9508 18.21 30.9512ZM13.248 26.4688L18.1475 30.1846L18.9834 28.377L18.9453 28.3604C17.9232 27.8764 14.9033 26.4489 14.2598 26.1475L13.248 26.4688Z" fill="white"/>
<path d="M18.21 30.9512L18.208 30.9521H18.2119L18.21 30.9512ZM18.21 30.9512C18.25 30.9511 18.2931 30.9484 18.333 30.9385C18.4852 30.9013 18.6105 30.8002 18.6748 30.6582L19.6631 28.5166C19.7814 28.263 19.67 27.9584 19.4199 27.8398L19.2334 27.751C18.1707 27.2501 14.9663 25.7345 14.4824 25.5078C14.3676 25.4538 14.2359 25.4473 14.1143 25.4844L12.7402 25.9209C12.5576 25.9818 12.4221 26.1339 12.3916 26.3232C12.3611 26.5127 12.4356 26.7023 12.5879 26.8174L17.9033 30.8477C17.9909 30.915 18.0988 30.9508 18.21 30.9512ZM13.248 26.4688L18.1475 30.1846L18.9834 28.377L18.9453 28.3604C17.9232 27.8764 14.9033 26.4489 14.2598 26.1475L13.248 26.4688Z" stroke="white"/>
<path d="M25.5391 25.5596C25.6541 25.5054 25.7859 25.4985 25.9111 25.5391L27.2812 25.9785C27.464 26.036 27.5994 26.1923 27.6299 26.3818C27.6635 26.5712 27.5857 26.76 27.4336 26.875L22.1113 30.8955C22.0204 30.9629 21.9125 30.9987 21.8047 30.999C21.7647 30.9989 21.7215 30.9967 21.6816 30.9834C21.5295 30.9462 21.4075 30.8412 21.3398 30.6992L20.3555 28.5566C20.2372 28.3029 20.3483 27.9983 20.5986 27.8799L20.6934 27.8359C21.6443 27.3858 25.0415 25.7897 25.5391 25.5596ZM21.043 28.4238L21.874 30.2324L26.7803 26.5264L25.7686 26.2021C25.1183 26.5036 22.0323 27.9563 21.043 28.4238Z" fill="white"/>
<path d="M25.5391 25.5596C25.6541 25.5054 25.7859 25.4985 25.9111 25.5391L27.2812 25.9785C27.464 26.036 27.5994 26.1923 27.6299 26.3818C27.6635 26.5712 27.5857 26.76 27.4336 26.875L22.1113 30.8955C22.0204 30.9629 21.9125 30.9987 21.8047 30.999C21.7647 30.9989 21.7215 30.9967 21.6816 30.9834C21.5295 30.9462 21.4075 30.8412 21.3398 30.6992L20.3555 28.5566C20.2372 28.3029 20.3483 27.9983 20.5986 27.8799L20.6934 27.8359C21.6443 27.3858 25.0415 25.7897 25.5391 25.5596ZM21.043 28.4238L21.874 30.2324L26.7803 26.5264L25.7686 26.2021C25.1183 26.5036 22.0323 27.9563 21.043 28.4238Z" stroke="white"/>
<defs>
<filter id="filter0_d_2113_2" x="0" y="0" width="40" height="41" filterUnits="userSpaceOnUse" color-interpolation-filters="sRGB">
<feFlood flood-opacity="0" result="BackgroundImageFix"/>
<feColorMatrix in="SourceAlpha" type="matrix" values="0 0 0 0 0 0 0 0 0 0 0 0 0 0 0 0 0 0 127 0" result="hardAlpha"/>
<feOffset dy="4"/>
<feGaussianBlur stdDeviation="2"/>
<feComposite in2="hardAlpha" operator="out"/>
<feColorMatrix type="matrix" values="0 0 0 0 0 0 0 0 0 0 0 0 0 0 0 0 0 0 0.25 0"/>
<feBlend mode="normal" in2="BackgroundImageFix" result="effect1_dropShadow_2113_2"/>
<feBlend mode="normal" in="SourceGraphic" in2="effect1_dropShadow_2113_2" result="shape"/>
</filter>
</defs>
</svg>
