<svg width="40" height="41" viewBox="0 0 40 41" fill="none" xmlns="http://www.w3.org/2000/svg">
<g filter="url(#filter0_d_2128_2)">
<ellipse cx="20" cy="16.5" rx="16" ry="16.5" fill="#477519"/>
</g>
<g clip-path="url(#clip0_2128_2)">
<path d="M21.5165 26.5277H21.5099C19.7417 26.5277 18.3639 25.3769 17.9866 25.0317C17.6487 25.0153 16.8122 24.8936 16.1987 24.1637C15.4901 23.3253 15.3294 21.9938 15.7197 20.2052C16.6744 15.8259 17.5569 12.9457 20.949 12.8307C21.7757 12.8011 22.7106 12.8109 23.3536 13.0937C24.6658 13.669 25.0234 14.5699 25.3383 15.3656C25.3843 15.4806 25.4302 15.5957 25.4761 15.7075L25.5483 15.8785C26.2143 17.4237 27.7725 21.0403 27.2936 23.1577C26.9163 24.8312 25.5877 24.9429 25.0201 24.9923C24.9578 24.9988 24.8856 25.0054 24.8397 25.012C23.826 26.0181 22.7073 26.531 21.5165 26.531V26.5277ZM18.4065 24.5221C18.669 24.772 19.9123 25.8668 21.5132 25.8668H21.5198C22.5466 25.8668 23.5242 25.4065 24.4231 24.4958C24.551 24.3676 24.7249 24.3511 24.9676 24.3314C25.5319 24.2821 26.3848 24.2098 26.6571 23.0064C27.0902 21.0962 25.5352 17.4895 24.948 16.1316L24.8758 15.9607C24.8266 15.8423 24.7774 15.7239 24.7314 15.6023C24.4362 14.8592 24.1573 14.1556 23.0944 13.6888C22.5007 13.429 21.4312 13.4652 20.9752 13.4816C19.7909 13.5211 18.9577 13.965 18.3278 14.7606C20.0632 18.0484 20.0074 20.1592 19.8172 21.1291C19.7319 21.5664 19.453 21.9346 19.0692 22.1154C17.8685 22.6809 18.2983 24.1835 18.4098 24.5188L18.4065 24.5221ZM17.9079 15.3886C17.2386 16.5656 16.8187 18.2523 16.3627 20.3466C16.0248 21.8984 16.1397 23.0722 16.7006 23.7396C17.0024 24.098 17.3797 24.2558 17.6684 24.3248C17.4716 23.4207 17.5405 22.1154 18.7871 21.5269C18.9839 21.4349 19.1282 21.2409 19.1709 21.0074C19.3382 20.1526 19.3808 18.3114 17.9079 15.3886Z" fill="white"/>
<path d="M24.9447 24.8837L24.3607 24.5812C25.0595 23.2299 24.4395 22.5263 23.7965 22.1745C23.4783 22.0003 23.2486 21.6978 23.1633 21.3427C22.5433 18.6796 24.0589 14.8493 24.1245 14.6882L24.1508 14.6191L24.2065 14.5698C25.6106 13.2711 26.2274 12.7221 26.6768 12.321C27.1689 11.8837 27.4412 11.6404 28.3335 10.779C29.6129 9.54277 29.3833 6.01495 29.1766 4.68338C29.0979 4.73928 29.0126 4.80503 28.9174 4.87408C27.8447 5.65329 25.6073 7.27418 25.1349 8.8326C24.4329 11.1472 23.6259 12.2585 23.5898 12.3045L23.0616 11.9133C23.0616 11.9133 23.8391 10.8349 24.5051 8.64191C25.0431 6.87306 27.3132 5.22587 28.5303 4.34145C28.6419 4.25926 28.7436 4.18692 28.8288 4.12445C29.006 3.99294 29.2324 3.96664 29.4325 4.04884C29.6359 4.13103 29.7769 4.31186 29.813 4.52886C29.8458 4.7327 30.5938 9.50989 28.7862 11.2557C27.884 12.127 27.6118 12.3703 27.1098 12.8141C26.667 13.2087 26.0633 13.7446 24.7019 15.0038C24.5051 15.5233 23.265 18.9196 23.7965 21.1981C23.8358 21.369 23.9474 21.517 24.1048 21.6025C24.5674 21.8556 25.9977 22.842 24.9381 24.8903L24.9447 24.8837Z" fill="white"/>
<path d="M17.3144 16.8354L16.6714 16.6973C17.088 14.7542 16.2482 14.1328 14.1355 12.7914C12.7314 11.9004 10.2973 12.775 8.84397 13.2977C7.80076 13.6725 7.32179 13.8435 7.07903 13.5016C6.8658 13.2057 7.1184 12.8341 7.40053 12.4758C8.45359 10.6609 10.4088 9.15508 12.3903 8.63889C14.7654 8.0175 17.3275 8.86904 18.9219 10.8056C20.3587 12.5514 20.9 12.7289 21.0313 12.7388C21.858 12.8144 22.5141 12.8736 23.1636 11.7492L23.7312 12.0779C22.8684 13.5673 21.8186 13.4687 20.9722 13.3931C20.6146 13.3602 19.9618 13.1005 18.4166 11.2231C16.983 9.48386 14.6834 8.7178 12.5576 9.27344C11.0584 9.66469 9.05721 10.9173 7.95822 12.8243L7.93198 12.8637C7.91229 12.89 7.89261 12.913 7.87621 12.9361C8.09601 12.867 8.36829 12.7684 8.62418 12.6763C10.1923 12.1141 12.8135 11.1705 14.4898 12.2358C16.5106 13.518 17.8425 14.3663 17.3144 16.8354Z" fill="white"/>
<path d="M21.3591 24.8182C19.3514 24.8182 18.9085 21.7901 18.8921 21.6586L19.5416 21.5699C19.5449 21.5962 19.9189 24.1607 21.3591 24.1607C22.3859 24.1607 22.6647 23.4538 22.9436 22.4543C23.0682 22.0137 23.1765 21.6323 23.4127 21.3857L23.8851 21.8427C23.7637 21.9677 23.6686 22.3063 23.5767 22.6318C23.3307 23.5031 22.96 24.8182 21.3591 24.8182Z" fill="white"/>
<path d="M23.091 30C23.0516 30 23.009 29.9967 22.9696 29.9868L12.8885 27.6097C12.2455 27.59 10.9136 27.6558 10.1689 28.0503C9.98517 28.1489 9.76866 28.1292 9.60135 28.001C9.43732 27.8728 9.36187 27.659 9.4078 27.4552L10.1 24.5422C10.1492 24.3417 10.3034 24.1904 10.5035 24.1444C10.7069 24.1016 10.9103 24.174 11.035 24.3384C11.4089 24.8217 12.1799 25.6666 13.1673 25.9099C14.5025 26.242 21.2834 27.9615 23.3305 28.481C23.6126 28.5533 23.7832 28.8328 23.7143 29.1188L23.6061 29.5857C23.547 29.829 23.3305 29.9967 23.0877 29.9967L23.091 30ZM12.6654 26.9522C12.7868 26.9522 12.8819 26.9522 12.9377 26.9555C12.977 26.9555 13.0066 26.962 13.0427 26.9686L23.0024 29.3161L23.0549 29.0925C20.8766 28.5402 14.3254 26.8798 13.0164 26.5543C11.9699 26.2946 11.1498 25.5055 10.6839 24.9466L10.1131 27.3566C10.9693 27.0015 12.1143 26.9522 12.6687 26.9522H12.6654Z" fill="white"/>
<path d="M14.6307 26.9259C14.5782 26.9259 14.5224 26.9193 14.4699 26.9062C14.2895 26.8634 14.1353 26.7517 14.0369 26.5938C13.9385 26.436 13.909 26.2486 13.9516 26.0678C13.9943 25.887 14.1058 25.7324 14.2633 25.6338C14.4207 25.5352 14.6077 25.5056 14.7881 25.5483C14.9686 25.5911 15.1228 25.7029 15.2212 25.8607C15.3196 26.0185 15.3491 26.2059 15.3065 26.3867C15.2638 26.5675 15.1523 26.7221 14.9948 26.8207C14.8833 26.8898 14.7586 26.9259 14.6307 26.9259ZM14.611 26.196C14.611 26.196 14.588 26.2355 14.5979 26.2519L14.6536 26.2651C14.6536 26.2651 14.6766 26.2256 14.6668 26.2092L14.611 26.196Z" fill="white"/>
<path d="M16.0609 27.2611C15.828 27.2611 15.5983 27.1427 15.4671 26.9323C15.2637 26.6035 15.3654 26.1761 15.6935 25.9722C16.0183 25.7684 16.448 25.8703 16.6514 26.1991C16.7498 26.3569 16.7793 26.5443 16.7367 26.7251C16.6941 26.906 16.5825 27.0605 16.425 27.1591C16.3102 27.2282 16.1856 27.2643 16.0609 27.2643V27.2611ZM16.0543 26.5279C16.0543 26.5279 16.0445 26.5279 16.0379 26.5345C16.0183 26.5443 16.015 26.5706 16.0248 26.5903C16.0347 26.6101 16.0609 26.6134 16.0806 26.6035C16.0806 26.6035 16.097 26.5903 16.097 26.5772C16.0839 26.541 16.0707 26.5279 16.0543 26.5279Z" fill="white"/>
<path d="M17.5403 27.6098C17.3074 27.6098 17.0778 27.4915 16.9466 27.2811C16.8481 27.1232 16.8186 26.9358 16.8613 26.755C16.9039 26.5742 17.0155 26.4196 17.1729 26.321C17.4977 26.1172 17.9275 26.2191 18.1308 26.5446C18.3342 26.8734 18.2325 27.3008 17.9045 27.5046C17.7897 27.5737 17.665 27.6098 17.5403 27.6098ZM17.5403 26.8734C17.5403 26.8734 17.5272 26.8734 17.5207 26.8799C17.5043 26.8898 17.4977 26.9194 17.5075 26.9358C17.5207 26.9556 17.5436 26.9621 17.5633 26.949C17.583 26.9358 17.5863 26.9128 17.5764 26.8931C17.5699 26.8799 17.5567 26.8734 17.5436 26.8734H17.5403Z" fill="white"/>
<path d="M19.0198 27.9583C18.7869 27.9583 18.5573 27.8399 18.4261 27.6295C18.3276 27.4717 18.2981 27.2843 18.3408 27.1034C18.3834 26.9226 18.4949 26.7681 18.6524 26.6695C18.8099 26.5708 18.9969 26.5412 19.1773 26.584C19.3577 26.6267 19.5119 26.7385 19.6103 26.8963C19.8137 27.2251 19.712 27.6525 19.384 27.8564C19.2692 27.9254 19.1445 27.9616 19.0198 27.9616V27.9583ZM19.0133 27.2251C19.0133 27.2251 19.0002 27.2251 18.9969 27.2284L18.9838 27.2843C18.9936 27.304 19.0198 27.3106 19.0395 27.2974C19.0592 27.2843 19.0625 27.2613 19.0526 27.2415C19.0461 27.2317 19.0297 27.2251 19.0166 27.2251H19.0133Z" fill="white"/>
<path d="M13.7872 25.5811C15.5784 26.0019 17.3696 26.4261 19.1608 26.8469C19.4134 26.9061 19.6627 26.9653 19.9153 27.0244C20.1679 27.0836 20.2827 26.6891 20.0236 26.6266C18.2324 26.2058 16.4412 25.7817 14.65 25.3608C14.3974 25.3016 14.1481 25.2425 13.8955 25.1833C13.6429 25.1241 13.5281 25.5186 13.7872 25.5811Z" fill="white"/>
</g>
<defs>
<filter id="filter0_d_2128_2" x="0" y="0" width="40" height="41" filterUnits="userSpaceOnUse" color-interpolation-filters="sRGB">
<feFlood flood-opacity="0" result="BackgroundImageFix"/>
<feColorMatrix in="SourceAlpha" type="matrix" values="0 0 0 0 0 0 0 0 0 0 0 0 0 0 0 0 0 0 127 0" result="hardAlpha"/>
<feOffset dy="4"/>
<feGaussianBlur stdDeviation="2"/>
<feComposite in2="hardAlpha" operator="out"/>
<feColorMatrix type="matrix" values="0 0 0 0 0 0 0 0 0 0 0 0 0 0 0 0 0 0 0.25 0"/>
<feBlend mode="normal" in2="BackgroundImageFix" result="effect1_dropShadow_2128_2"/>
<feBlend mode="normal" in="SourceGraphic" in2="effect1_dropShadow_2128_2" result="shape"/>
</filter>
<clipPath id="clip0_2128_2">
<rect width="23" height="26" fill="white" transform="translate(7 4)"/>
</clipPath>
</defs>
</svg>
