<svg width="28" height="28" viewBox="0 0 28 28" fill="none" xmlns="http://www.w3.org/2000/svg">
<g filter="url(#filter0_d_2025_5)">
<circle cx="14" cy="10" r="10" fill="#862518"/>
</g>
<path d="M22.0819 5.42417C21.332 6.26409 20.4843 6.95543 19.3664 7.24009C18.8882 7.36209 18.4053 7.30892 17.9224 7.28545C17.6274 7.27138 17.3324 7.24635 17.0576 7.22758C17.143 7.53884 17.261 7.83758 17.306 8.14727C17.4349 9.05446 17.1585 9.86935 16.6493 10.6014C16.3481 11.0346 15.9972 11.4366 15.6494 11.8339C15.1137 12.4439 14.6821 13.1008 14.6153 13.9626C13.9896 13.8359 13.3701 13.7765 12.704 13.9783C12.7739 13.6326 12.8189 13.3198 12.8997 13.0163C13.1558 12.0482 13.6651 11.2051 14.2039 10.3793C14.502 9.92253 14.8078 9.46894 14.8653 8.91056C14.8932 8.63528 14.8963 8.34122 14.8296 8.07689C14.6836 7.49974 14.2722 7.1963 13.6931 7.12279C13.1419 7.05397 12.7242 7.26981 12.4432 7.74843C12.0814 8.36625 12.1482 9.00597 12.3733 9.64725C12.4183 9.77551 12.4789 9.89907 12.5332 10.0258C11.3874 10.276 10.4465 9.66915 10.1965 8.52579C10.1888 8.49138 10.1717 8.4601 10.1577 8.42725C10.1577 8.23956 10.1577 8.05187 10.1577 7.86417C10.1686 7.84228 10.1841 7.82194 10.1888 7.79848C10.3906 6.80527 10.9542 6.10925 11.8858 5.7276C12.6031 5.43355 13.3515 5.3663 14.1123 5.48361C14.2955 5.51176 14.3809 5.46014 14.488 5.31625C15.0128 4.60458 15.536 3.88978 16.0919 3.2047C16.7409 2.40545 17.5048 1.73601 18.4472 1.29337C18.8959 1.08221 19.3307 0.842907 19.7716 0.617676C19.784 0.617676 19.7965 0.617676 19.8089 0.617676C20.0216 0.695881 20.0293 0.867933 19.9874 1.04624C19.8818 1.50139 19.7965 1.96437 19.649 2.40545C19.354 3.2876 18.8602 4.02586 18.0373 4.50604C17.6895 4.70937 17.3495 4.92991 17.0079 5.14263C16.9536 5.17704 16.9008 5.21302 16.8465 5.24899C16.8992 5.26307 16.9396 5.25368 16.98 5.24273C17.7299 5.04253 18.486 4.81104 19.2608 4.84232C20.1365 4.87673 21.0091 5.02063 21.8801 5.12699C21.9515 5.13637 22.0152 5.22084 22.0819 5.27089V5.42104V5.42417Z" fill="white"/>
<path d="M12.9899 16.9617C13.3346 16.9617 13.614 16.6823 13.614 16.3375C13.614 15.9928 13.3346 15.7134 12.9899 15.7134C12.6452 15.7134 12.3657 15.9928 12.3657 16.3375C12.3657 16.6823 12.6452 16.9617 12.9899 16.9617Z" fill="white"/>
<path d="M12.7416 16.5198C13.0863 16.5198 13.3657 16.2404 13.3657 15.8956C13.3657 15.5509 13.0863 15.2715 12.7416 15.2715C12.3969 15.2715 12.1174 15.5509 12.1174 15.8956C12.1174 16.2404 12.3969 16.5198 12.7416 16.5198Z" fill="white"/>
<path d="M12.7619 16.012C13.1066 16.012 13.386 15.7325 13.386 15.3878C13.386 15.0431 13.1066 14.7637 12.7619 14.7637C12.4171 14.7637 12.1377 15.0431 12.1377 15.3878C12.1377 15.7325 12.4171 16.012 12.7619 16.012Z" fill="white"/>
<path d="M13.0443 15.5891C13.389 15.5891 13.6685 15.3097 13.6685 14.965C13.6685 14.6203 13.389 14.3408 13.0443 14.3408C12.6996 14.3408 12.4202 14.6203 12.4202 14.965C12.4202 15.3097 12.6996 15.5891 13.0443 15.5891Z" fill="white"/>
<path d="M13.5053 15.3772C13.85 15.3772 14.1294 15.0978 14.1294 14.7531C14.1294 14.4084 13.85 14.1289 13.5053 14.1289C13.1605 14.1289 12.8811 14.4084 12.8811 14.7531C12.8811 15.0978 13.1605 15.3772 13.5053 15.3772Z" fill="white"/>
<path d="M14.0099 15.4353C14.3546 15.4353 14.6341 15.1559 14.6341 14.8112C14.6341 14.4665 14.3546 14.187 14.0099 14.187C13.6652 14.187 13.3857 14.4665 13.3857 14.8112C13.3857 15.1559 13.6652 15.4353 14.0099 15.4353Z" fill="white"/>
<path d="M14.4091 15.7522C14.7538 15.7522 15.0332 15.4728 15.0332 15.1281C15.0332 14.7834 14.7538 14.5039 14.4091 14.5039C14.0644 14.5039 13.7849 14.7834 13.7849 15.1281C13.7849 15.4728 14.0644 15.7522 14.4091 15.7522Z" fill="white"/>
<path d="M14.5844 16.2273C14.9291 16.2273 15.2085 15.9479 15.2085 15.6032C15.2085 15.2584 14.9291 14.979 14.5844 14.979C14.2397 14.979 13.9602 15.2584 13.9602 15.6032C13.9602 15.9479 14.2397 16.2273 14.5844 16.2273Z" fill="white"/>
<path d="M14.4852 16.7259C14.83 16.7259 15.1094 16.4464 15.1094 16.1017C15.1094 15.757 14.83 15.4775 14.4852 15.4775C14.1405 15.4775 13.8611 15.757 13.8611 16.1017C13.8611 16.4464 14.1405 16.7259 14.4852 16.7259Z" fill="white"/>
<path d="M14.1405 17.0984C14.4852 17.0984 14.7647 16.819 14.7647 16.4743C14.7647 16.1295 14.4852 15.8501 14.1405 15.8501C13.7958 15.8501 13.5164 16.1295 13.5164 16.4743C13.5164 16.819 13.7958 17.0984 14.1405 17.0984Z" fill="white"/>
<path d="M13.6513 17.2371C13.996 17.2371 14.2754 16.9576 14.2754 16.6129C14.2754 16.2682 13.996 15.9888 13.6513 15.9888C13.3065 15.9888 13.0271 16.2682 13.0271 16.6129C13.0271 16.9576 13.3065 17.2371 13.6513 17.2371Z" fill="white"/>
<path d="M13.6807 16.2252C13.9697 16.2252 14.2039 15.9909 14.2039 15.7019C14.2039 15.413 13.9697 15.1787 13.6807 15.1787C13.3917 15.1787 13.1575 15.413 13.1575 15.7019C13.1575 15.9909 13.3917 16.2252 13.6807 16.2252Z" fill="white"/>
<defs>
<filter id="filter0_d_2025_5" x="0" y="0" width="28" height="28" filterUnits="userSpaceOnUse" color-interpolation-filters="sRGB">
<feFlood flood-opacity="0" result="BackgroundImageFix"/>
<feColorMatrix in="SourceAlpha" type="matrix" values="0 0 0 0 0 0 0 0 0 0 0 0 0 0 0 0 0 0 127 0" result="hardAlpha"/>
<feOffset dy="4"/>
<feGaussianBlur stdDeviation="2"/>
<feComposite in2="hardAlpha" operator="out"/>
<feColorMatrix type="matrix" values="0 0 0 0 0 0 0 0 0 0 0 0 0 0 0 0 0 0 0.25 0"/>
<feBlend mode="normal" in2="BackgroundImageFix" result="effect1_dropShadow_2025_5"/>
<feBlend mode="normal" in="SourceGraphic" in2="effect1_dropShadow_2025_5" result="shape"/>
</filter>
</defs>
</svg>
